# xmcd CD database file
#
# Track frame offsets:
#	182
#	12957
#	24877
#	35737
#	48632
#	62672
#	74800
#	85572
#	98520
#	114720
#	126195
#	138095
#	149185
#	160647
#	170902
#	182850
#
# Disc length: 2614 seconds
#
# Revision: 5
# Processed by: cddbd v1.5.2PL0 Copyright (c) Steve Scherf et al.
# Submitted via: CDex 1.77
#
DISCID=e40a3410
DTITLE=Various Artist - Country and Western Festival Vol.2
DYEAR=1991
DGENRE=Country
TTITLE0=Bobby Bare - Rosalie
TTITLE1=Ferlin Husky - I Could Sing All Night
TTITLE2=Freddy Quinn - Tom Dooley
TTITLE3=Dave Dudley - Me And Ole C.B.
TTITLE4=Barbara Perry - Why Can't Woman Have A Good Beerdrinking Song
TTITLE5=Rinnie Rogers - It's Good To Know She Is There
TTITLE6=George Kent - I'm In A Bad Mood Tonight
TTITLE7=Dave Dudley - The Pool Shark
TTITLE8=Boby Bare - Me And Bobby McGee
TTITLE9=Ferlin Husky - My Home Town
TTITLE10=Dave Dudley - The Most Beautiful Girl
TTITLE11=Buddy Meredith - Lonely In Person
TTITLE12=David Prive - Truck Driver's Waltz
TTITLE13=Bobby Bare - Help Me Make It Through The Night
TTITLE14=George Kent - I Always Did Like Leavenworth
TTITLE15=Dave Dudley - Counterfeit Cowboy
EXTD=YEAR: 1991
EXTT0=
EXTT1=
EXTT2=
EXTT3=
EXTT4=
EXTT5=
EXTT6=
EXTT7=
EXTT8=
EXTT9=
EXTT10=
EXTT11=
EXTT12=
EXTT13=
EXTT14=
EXTT15=
PLAYORDER=
